<svg version="1.1" id="Layer_1" xmlns="http://www.w3.org/2000/svg" xmlns:xlink="http://www.w3.org/1999/xlink" x="0px" y="0px"
	 width="100%" viewBox="0 0 1080 1079" enable-background="new 0 0 1080 1079" xml:space="preserve">
<path fill="#FEFEFD" opacity="1.000000" stroke="none" 
	d="
M1081.000000,399.000000 
	C1081.000000,626.307068 1081.000000,853.114197 1081.000000,1079.960693 
	C721.067871,1079.960693 361.135773,1079.960693 1.101839,1079.960693 
	C1.101839,720.442871 1.101839,360.885681 1.101839,1.164255 
	C360.999939,1.164255 720.999939,1.164255 1081.000000,1.164255 
	C1081.000000,133.530991 1081.000000,266.015503 1081.000000,399.000000 
M708.298828,86.843620 
	C704.529663,85.573341 700.760559,84.303062 696.272766,82.849243 
	C693.850220,81.885246 691.458679,80.832916 689.000488,79.970467 
	C650.458496,66.448135 610.357910,61.574425 569.912720,59.120052 
	C531.103882,56.764984 492.347260,57.839043 453.748810,62.958218 
	C424.820770,66.794838 396.260895,72.137405 368.242523,82.971992 
	C364.394440,84.564384 360.546326,86.156776 355.979950,87.883026 
	C347.313171,91.711632 338.464539,95.182098 330.029022,99.466064 
	C320.964905,104.069290 312.343689,109.547729 306.018890,117.811378 
	C299.009857,126.969002 298.808807,135.999146 306.557281,144.532700 
	C311.288086,149.742828 317.114258,154.198410 323.082855,157.995728 
	C336.364746,166.445953 351.182159,171.573471 366.205231,175.957169 
	C414.954254,190.181992 465.014801,195.238358 515.529297,196.588104 
	C550.672729,197.527115 585.736511,196.061768 620.727722,192.252487 
	C653.864624,188.645096 686.623291,183.378189 718.363464,172.939987 
	C733.263916,168.039749 747.787659,162.197815 759.697754,151.505859 
	C772.158325,140.319778 772.522827,126.839958 760.698364,115.021828 
	C758.124268,112.449120 755.363770,109.822533 752.203735,108.123466 
	C744.027832,103.727501 735.580994,99.835327 726.934387,95.146240 
	C720.941895,92.475166 714.949341,89.804100 708.298828,86.843620 
M357.771851,978.038696 
	C359.576477,978.710571 361.378418,979.389832 363.186066,980.053406 
	C405.383850,995.543213 448.750946,1005.691528 493.637207,1009.344421 
	C557.676514,1014.556091 620.181274,1006.978882 681.319275,987.554749 
	C689.315247,985.014343 697.112732,981.849243 705.755859,978.978394 
	C709.829224,977.301270 713.902527,975.624084 717.975891,973.946960 
	C717.769226,973.379944 717.562561,972.812988 717.355896,972.246033 
	C711.874084,973.819275 706.392273,975.392578 700.264343,977.106567 
	C698.716492,977.394287 697.142456,977.583069 695.624512,977.984070 
	C655.517395,988.578979 614.492310,992.872620 573.245667,994.803040 
	C512.510010,997.645752 452.060577,994.619141 392.251862,982.890259 
	C380.778809,980.640320 369.455017,977.629578 357.491852,974.510681 
	C352.796661,973.145020 348.101471,971.779358 343.406281,970.413757 
	C343.263977,970.817627 343.121704,971.221558 342.979401,971.625488 
	C347.680389,973.638916 352.381348,975.652405 357.771851,978.038696 
M670.877075,353.264221 
	C675.841797,352.788055 680.844482,352.556824 685.765015,351.794983 
	C712.663452,347.630219 739.640015,343.869720 766.401550,338.947235 
	C798.658569,333.013916 830.229431,324.335419 860.286804,310.916901 
	C876.774231,303.556458 892.642883,295.027405 904.516113,280.892792 
	C917.939758,264.912567 918.049011,247.084259 904.874207,230.851364 
	C898.588501,223.106583 892.021301,215.565094 885.220642,208.267899 
	C858.899292,180.024536 829.995483,154.779022 797.527893,133.763474 
	C793.411316,131.098892 788.990662,128.904175 784.710876,126.491783 
	C784.853394,128.225327 785.564697,129.072372 786.280151,129.915833 
	C796.623352,142.108368 796.500549,154.221436 784.911682,165.182541 
	C779.306152,170.484436 772.749939,175.075699 765.964478,178.780334 
	C745.635376,189.879333 723.457581,195.930450 701.010681,200.973984 
	C656.366272,211.004974 611.053284,215.627594 565.396790,217.029449 
	C512.694397,218.647675 460.172974,216.479218 408.061707,207.883102 
	C378.315918,202.976349 348.852936,196.768204 320.952332,184.917664 
	C311.903900,181.074387 303.288086,176.212585 294.474365,171.816681 
	C294.669342,171.229843 294.864319,170.643005 295.059296,170.056168 
	C303.863525,168.127258 312.667725,166.198349 322.224884,164.104492 
	C304.589386,151.824600 287.230225,139.994202 300.670746,115.052757 
	C299.950317,115.010910 299.551361,114.861656 299.303864,114.994522 
	C298.024200,115.681496 296.796692,116.464798 295.526886,117.171181 
	C244.077454,145.792709 201.002777,184.368301 163.128006,229.019455 
	C149.997681,244.498932 150.617630,263.256348 164.055054,278.514557 
	C176.578445,292.734863 192.865036,301.446747 209.790817,308.999664 
	C245.661545,325.006561 283.389923,335.158142 321.923920,341.782776 
	C353.817596,347.265839 385.973511,351.651642 418.184265,354.739288 
	C448.972534,357.690582 479.966827,359.260498 510.897308,359.750916 
	C544.187439,360.278748 577.524109,359.282288 610.810486,358.103394 
	C630.567749,357.403687 650.266968,355.068115 670.877075,353.264221 
M822.335938,805.881409 
	C790.578308,811.521484 758.977478,818.391296 727.020325,822.466858 
	C692.863953,826.822998 658.405945,829.077576 624.018433,831.302795 
	C552.895630,835.905029 481.777008,834.139893 410.783844,828.661072 
	C370.462799,825.549377 330.306580,820.632202 290.496460,813.164368 
	C248.570084,805.299500 207.178360,795.608826 167.688705,779.055603 
	C144.522598,769.344788 122.573616,757.666931 104.933083,739.213806 
	C103.677994,737.900879 102.130394,736.867615 100.542938,735.559387 
	C100.290688,736.370605 100.174896,736.540894 100.219955,736.626892 
	C103.528976,742.947083 106.937416,749.216675 110.157516,755.581604 
	C132.629807,800.000916 162.331589,839.095337 197.928452,873.704895 
	C212.453949,887.827576 226.943054,902.043152 245.488770,911.370605 
	C273.385010,925.400818 302.969238,934.230042 333.245544,940.863220 
	C390.729187,953.457336 449.086914,958.660156 507.817352,959.968628 
	C564.363464,961.228455 620.745361,958.958862 676.849121,951.243835 
	C715.679626,945.904175 753.996704,938.426941 790.936279,924.953308 
	C812.981873,916.912048 834.022217,906.978271 850.945068,890.200378 
	C865.945740,875.328064 880.953064,860.425659 895.235046,844.873108 
	C922.228516,815.478394 943.183411,781.901611 961.325439,746.501526 
	C962.467163,744.273682 963.089478,741.779724 963.953491,739.409546 
	C952.916382,751.887390 939.827332,761.149902 925.691650,768.971130 
	C893.518738,786.772278 858.697998,797.271484 822.335938,805.881409 
M626.248047,468.854553 
	C640.011658,467.892426 653.807434,467.255341 667.531616,465.895416 
	C690.813354,463.588501 714.063904,460.944550 737.302246,458.225952 
	C770.739868,454.314178 803.777466,448.103333 836.396240,439.823639 
	C869.441528,431.435730 901.793884,421.039459 931.520447,403.854187 
	C945.002808,396.059875 957.703979,387.208588 966.527710,373.948364 
	C974.877625,361.400208 975.715332,348.268158 969.302856,334.594116 
	C958.401123,311.347351 945.812134,289.053162 931.750977,267.581757 
	C931.138489,266.646515 930.317017,265.848083 928.768494,264.004364 
	C935.082703,288.526337 926.004883,300.028656 915.266052,310.863373 
	C912.466064,313.688385 909.303955,316.204254 906.083923,318.554962 
	C885.942749,333.258789 863.063354,342.274597 839.546509,349.665649 
	C778.231567,368.936188 714.915466,377.242889 651.180664,382.592102 
	C623.326233,384.929901 595.322998,386.421692 567.379578,386.545044 
	C529.258972,386.713348 491.119568,385.556885 453.009308,384.319061 
	C415.938568,383.115021 379.150757,378.681915 342.486328,373.105072 
	C300.580200,366.730927 259.271912,357.900879 219.348007,343.457825 
	C196.619156,335.235321 174.522598,325.533905 155.895462,309.601135 
	C143.371506,298.888733 134.289154,286.367065 137.031342,268.526428 
	C137.143082,267.799530 137.045624,267.040466 137.045624,266.296356 
	C135.039429,267.538116 133.843506,269.030060 132.904648,270.669189 
	C122.573921,288.705505 112.436569,306.854462 101.940170,324.793488 
	C90.566162,344.232391 95.399055,365.320068 108.565018,380.247070 
	C123.724190,397.433899 143.320297,407.949371 163.905563,416.812866 
	C198.482880,431.700989 234.729980,441.173248 271.634369,447.847351 
	C301.614594,453.269257 331.766357,458.011078 362.014069,461.607697 
	C390.550171,465.000793 419.276550,467.165039 447.982239,468.657806 
	C477.409821,470.188110 506.913757,470.797455 536.384338,470.798553 
	C566.021606,470.799683 595.658875,469.555420 626.248047,468.854553 
M331.972748,621.483215 
	C346.316986,623.300415 360.648773,625.232849 375.021698,626.784485 
	C376.757568,626.971863 379.604523,625.597839 380.436005,624.109314 
	C391.146301,604.935974 401.654144,585.647644 411.978088,566.263123 
	C412.971313,564.398315 413.151855,561.419556 412.425690,559.425476 
	C405.140228,539.418762 397.352692,519.592163 390.280884,499.512543 
	C388.633514,494.834961 385.982391,493.580048 381.814911,493.033234 
	C355.994537,489.645111 330.064758,486.887756 304.400940,482.559296 
	C269.750854,476.715149 235.353516,469.462677 201.708542,459.052368 
	C173.200531,450.231506 145.172211,440.199554 120.186371,423.491058 
	C100.930183,410.614105 83.623703,395.975342 83.702888,368.347900 
	C82.422386,371.443878 81.564278,373.181030 80.970543,375.004272 
	C70.490944,407.185577 61.442669,439.708252 58.308723,473.567963 
	C57.406151,483.319489 55.591801,493.273193 56.663185,502.858368 
	C58.605961,520.239502 69.752007,532.761536 82.660629,543.522522 
	C104.991417,562.138245 131.301712,573.320557 158.327698,582.979675 
	C185.569473,592.715881 213.463425,600.302429 241.830902,605.787598 
	C271.482269,611.520935 301.349670,616.137207 331.972748,621.483215 
M101.552338,720.948608 
	C119.001938,736.905029 139.535400,747.792969 161.097000,756.903992 
	C194.755142,771.126343 229.896744,780.483032 265.552216,787.975891 
	C319.189117,799.247375 373.494629,805.838074 428.113678,809.596802 
	C474.986023,812.822449 521.933105,814.189087 568.951294,813.360107 
	C631.265747,812.261353 693.320374,808.381287 755.025940,799.271545 
	C796.679199,793.122131 837.846924,784.950012 877.898071,771.784607 
	C903.741333,763.289551 928.788696,752.991272 950.973145,736.838623 
	C965.499146,726.262268 977.608093,713.679871 983.270325,696.035034 
	C985.964417,687.639404 988.735229,679.268311 991.392334,670.861145 
	C991.834290,669.462830 991.870728,667.936340 992.094482,666.469055 
	C989.783081,668.207703 988.474487,670.252747 987.021423,672.189453 
	C974.294495,689.152649 957.016785,700.342712 938.557678,709.881897 
	C911.261536,723.987854 882.180847,733.286743 852.565308,741.041077 
	C796.425537,755.740356 739.159546,763.836487 681.477356,768.668335 
	C644.158997,771.794373 606.679138,774.008118 569.245056,774.469910 
	C526.799744,774.993713 484.311371,773.516296 441.866150,772.149170 
	C399.263397,770.777100 356.914734,766.204712 314.711945,760.185120 
	C278.989960,755.089783 243.585785,748.526123 208.739960,739.082703 
	C176.726379,730.406982 145.389603,719.955261 116.603065,703.087891 
	C99.928978,693.317810 84.787521,681.738892 74.760910,664.650574 
	C74.378937,663.999573 73.508171,663.635376 72.533119,662.880310 
	C74.777420,670.090149 77.169212,676.623169 78.827690,683.337402 
	C82.457390,698.031799 89.931679,710.305359 101.552338,720.948608 
M171.294250,701.165588 
	C197.583176,708.118103 223.655060,716.089966 250.219940,721.746460 
	C278.765411,727.824585 307.705505,732.194580 336.602539,736.428711 
	C358.296967,739.607483 380.189362,741.454163 402.015381,743.680359 
	C403.769531,743.859192 406.335754,742.911316 407.436523,741.584412 
	C416.579193,730.563660 425.394836,719.271973 434.485474,708.206970 
	C436.479431,705.779968 436.248077,704.187927 434.479095,701.782288 
	C424.714294,688.503357 415.183685,675.052185 405.409668,661.780151 
	C404.395691,660.403320 402.383881,659.175476 400.703827,658.974182 
	C392.449677,657.985596 384.111145,657.666260 375.875671,656.563538 
	C348.589294,652.909729 321.298615,649.258850 294.076050,645.164917 
	C255.183731,639.316101 216.814484,630.983887 179.165314,619.521545 
	C150.322067,610.740356 122.136902,600.332825 96.630623,583.879395 
	C77.818581,571.744324 61.492363,557.359070 55.386463,534.516479 
	C55.275028,534.099609 54.807423,533.777954 54.463619,533.360413 
	C54.421082,558.663452 57.526009,583.545044 60.497414,608.508972 
	C62.666237,626.730042 69.219322,642.118042 82.964462,653.776367 
	C93.185287,662.445374 103.987610,670.969055 115.810883,677.081726 
	C133.455307,686.204041 152.226227,693.147461 171.294250,701.165588 
M664.539246,535.067078 
	C657.917053,552.544800 655.404724,570.455017 659.044617,588.965088 
	C664.365356,616.022827 680.269104,628.035889 704.151062,626.804443 
	C723.306580,625.816711 738.780457,616.540405 750.124268,601.170776 
	C766.637939,578.796631 769.412109,553.530884 764.102661,526.989075 
	C757.333557,493.150391 728.058472,484.398071 701.679871,495.024933 
	C683.406311,502.386566 672.278687,516.710266 664.539246,535.067078 
M578.501221,581.026184 
	C585.121460,581.288757 591.754944,581.377319 598.356628,581.882690 
	C601.994873,582.161194 605.576233,583.687500 605.812622,587.877380 
	C606.068054,592.404602 603.672119,596.411560 599.226990,597.369141 
	C593.003174,598.709717 586.367371,600.106689 580.204529,599.276489 
	C571.991089,598.169983 564.062683,594.947266 555.354736,592.444702 
	C549.644653,601.519104 543.390625,611.457886 536.975281,621.653015 
	C562.350891,636.287170 588.475769,639.923462 615.548035,628.465576 
	C632.734802,621.191589 644.874390,608.923462 647.497437,589.458374 
	C650.325134,568.473877 639.800720,553.324036 619.284058,549.287170 
	C612.341492,547.921082 605.105347,548.046692 597.661621,547.463867 
	C598.038757,545.836975 598.442505,544.078735 598.854004,542.322266 
	C600.573425,534.983337 600.583313,535.215088 608.175598,534.918640 
	C621.106995,534.413635 634.025818,533.585144 647.010071,532.889343 
	C648.220459,521.829956 649.391174,511.133484 650.550232,500.542725 
	C624.253784,501.779999 598.393066,502.996765 572.228699,504.227814 
	C565.782959,529.728516 559.277954,555.463562 552.816406,581.026855 
	C561.267517,581.026855 569.385010,581.026855 578.501221,581.026184 
M864.671570,548.038696 
	C864.752686,540.714661 865.270081,533.363647 864.817749,526.072693 
	C864.039490,513.527222 861.563293,501.318512 855.183289,490.217682 
	C848.181763,478.035248 835.519470,471.219696 823.369202,473.127563 
	C812.052368,474.904633 802.366394,480.062500 795.482361,489.069061 
	C773.140747,518.299194 769.190063,550.809448 779.763977,585.461182 
	C782.186157,593.399231 786.712891,600.259216 793.833862,604.949768 
	C807.361450,613.860291 824.817871,612.284912 838.699463,600.785034 
	C854.926575,587.342102 862.072021,569.287964 864.671570,548.038696 
M425.088318,570.601807 
	C420.670593,590.194214 416.252899,609.786621 411.677765,630.077148 
	C424.657928,630.861511 436.979797,631.606079 449.384979,632.355652 
	C452.728943,616.724243 455.906799,601.869202 459.119629,586.850647 
	C478.342010,587.468994 496.944916,588.067383 516.003418,588.680420 
	C518.057922,578.518188 520.080261,568.515320 522.352295,557.277100 
	C503.185577,557.277100 484.801666,557.277100 465.745697,557.277100 
	C467.746429,548.308655 469.369446,540.525146 471.335297,532.829163 
	C471.596985,531.804810 473.598663,530.545410 474.793671,530.546265 
	C484.446106,530.553467 494.097504,530.910706 503.750793,531.013550 
	C513.023926,531.112427 522.298950,531.034912 531.733459,531.034912 
	C533.582458,521.019165 535.380005,511.282379 537.219116,501.320007 
	C535.401123,501.212891 534.086243,501.105560 532.769226,501.062225 
	C504.004547,500.116364 475.238281,499.216187 446.476929,498.179901 
	C443.485657,498.072113 442.556580,499.214905 441.898895,501.952576 
	C436.460510,524.591248 430.853882,547.189514 425.088318,570.601807 
M584.241394,970.899963 
	C523.219788,973.548462 462.349213,972.204285 401.748840,963.909424 
	C360.104950,958.209167 319.126495,949.824585 280.080505,933.644104 
	C276.873749,932.315247 273.449005,931.512451 270.125580,930.465210 
	C269.929108,930.966431 269.732605,931.467651 269.536133,931.968872 
	C279.053894,937.613708 288.266418,943.872864 298.149200,948.782959 
	C323.350769,961.304077 350.365875,968.453918 377.804993,974.069031 
	C414.917297,981.663574 452.470917,985.616272 490.281189,987.281067 
	C561.940796,990.436218 633.115173,986.915039 703.279480,970.895447 
	C732.906555,964.131104 761.725647,955.023987 787.348999,937.921265 
	C790.322815,935.936218 793.256348,933.890747 796.208618,931.873291 
	C796.018982,931.503357 795.829407,931.133423 795.639832,930.763489 
	C794.147400,931.231445 792.640930,931.659302 791.164612,932.173401 
	C775.957092,937.469238 761.004822,943.698853 745.504883,947.917419 
	C693.056335,962.192139 639.321167,968.055481 584.241394,970.899963 
M947.877686,551.626892 
	C941.068420,534.854248 934.205688,518.102783 927.532349,501.276276 
	C926.863159,499.589172 926.927856,497.349152 927.356628,495.532013 
	C929.684814,485.664185 932.582214,475.919830 934.614929,465.996002 
	C936.886658,454.905975 938.442993,443.669434 940.476196,431.506714 
	C933.609924,435.053070 927.917175,437.763306 922.491150,440.930603 
	C920.781494,441.928528 919.054749,443.969269 918.587708,445.844482 
	C916.137573,455.682281 914.308838,465.675385 911.836426,475.506958 
	C909.588135,484.447083 906.792053,493.249451 904.237549,502.112549 
	C903.840881,502.026978 903.444275,501.941437 903.047668,501.855865 
	C901.105774,485.151276 899.163879,468.446716 897.179443,451.376160 
	C889.023376,454.231964 881.720276,456.789124 874.058411,459.471893 
	C879.756531,504.706635 880.633667,549.827881 876.480347,595.723816 
	C885.946228,592.835327 894.401733,590.255066 902.688049,587.726501 
	C903.129761,578.237854 902.507263,569.214050 904.241821,560.668701 
	C905.965515,552.177185 910.059387,544.166748 913.113831,535.945374 
	C913.543457,536.022217 913.973022,536.098999 914.402649,536.175781 
	C919.594666,549.921387 924.786682,563.666931 930.066101,577.643982 
	C938.033630,574.028381 945.510803,570.635376 953.037109,567.220032 
	C951.227966,561.815979 949.649414,557.100647 947.877686,551.626892 
M565.192505,732.686829 
	C560.795715,738.026428 556.398865,743.366028 551.959656,748.757141 
	C552.648987,749.175110 552.909729,749.473572 553.160706,749.465515 
	C576.943359,748.699585 600.726929,747.953613 624.503174,747.021057 
	C626.021606,746.961487 627.879089,745.776917 628.908203,744.552124 
	C637.365173,734.486633 645.683411,724.304077 653.998718,714.120239 
	C656.802795,710.686035 659.477234,707.146057 662.243286,703.613159 
	C651.390686,690.161438 640.879944,677.050354 630.212463,664.068115 
	C629.353333,663.022583 627.402893,662.333679 625.982422,662.370056 
	C602.361145,662.974792 578.743347,663.718567 555.125488,664.453796 
	C554.393555,664.476562 553.669250,664.741760 552.306641,665.026611 
	C563.726379,679.524292 574.783325,693.561340 585.878479,707.646973 
	C579.002930,715.977844 572.330078,724.063232 565.192505,732.686829 
M526.652283,675.845337 
	C524.816528,673.479980 522.750732,671.254761 521.202087,668.714417 
	C519.177063,665.392456 516.605225,664.322083 512.668152,664.271423 
	C497.194183,664.072449 481.727936,663.344849 466.255005,662.970581 
	C458.557922,662.784363 450.852600,662.938171 442.826263,662.938171 
	C452.889374,676.404602 462.914154,690.026367 473.214386,703.436584 
	C475.387817,706.266174 475.281738,707.959045 473.041595,710.600769 
	C465.077789,719.992310 457.366669,729.598145 449.575378,739.135620 
	C447.648773,741.494019 445.780853,743.900391 443.249054,747.086121 
	C465.546753,747.797363 486.656982,748.146667 507.721497,749.317871 
	C515.119446,749.729187 519.898987,747.745361 524.410767,741.734863 
	C533.054138,730.220276 542.644592,719.416565 551.920593,708.223022 
	C543.453552,697.381287 535.266846,686.898560 526.652283,675.845337 
M679.210022,680.298157 
	C684.696655,687.114990 690.183350,693.931885 695.759338,700.859680 
	C684.007019,715.521118 672.520020,729.851624 660.168091,745.261169 
	C682.889343,742.968811 704.159241,740.613586 725.475464,738.802917 
	C731.660522,738.277527 736.000549,736.160156 739.302368,730.884644 
	C741.937012,726.675049 745.405029,722.993042 748.425781,719.018005 
	C755.335083,709.926025 762.196838,700.797913 769.111084,691.640564 
	C759.013733,678.948364 749.329834,666.671997 739.459534,654.547363 
	C738.578125,653.464539 736.429871,652.763489 734.967529,652.903687 
	C720.275269,654.312073 705.607300,655.971252 690.924438,657.481201 
	C681.796509,658.419922 672.654724,659.223816 662.897522,660.147034 
	C668.541077,667.108337 673.659912,673.422363 679.210022,680.298157 
M984.627747,547.132812 
	C988.365417,543.826843 992.307007,540.721985 995.802429,537.177063 
	C1005.958679,526.876831 1011.894104,514.596375 1010.835449,499.909790 
	C1008.133423,462.425201 1001.203552,425.678497 990.568787,389.635284 
	C989.581909,386.290680 988.335754,383.020569 987.153503,379.736206 
	C986.047180,376.662994 984.865723,373.616821 983.717407,370.558746 
	C986.368896,388.807465 978.059814,402.068634 965.170837,413.223175 
	C958.799866,418.736786 952.017334,423.774841 945.569031,428.910187 
	C953.911499,444.988586 962.072815,460.967163 970.495850,476.806549 
	C973.180054,481.854095 974.049500,486.924713 973.652466,492.589844 
	C972.220398,513.026062 971.080872,533.482788 969.841919,553.932373 
	C969.784851,554.873413 969.834595,555.820923 969.834595,557.984253 
	C975.097900,554.138794 979.585876,550.859863 984.627747,547.132812 
M978.606689,662.122375 
	C990.341675,652.690552 999.417908,641.129089 1002.648010,626.345581 
	C1005.801025,611.915283 1007.793945,597.176941 1009.376770,582.474854 
	C1010.731995,569.887146 1010.786011,557.159363 1011.435242,544.095825 
	C1006.850952,551.307495 1003.234436,558.194946 998.494080,564.194397 
	C989.693604,575.332275 977.933105,583.050293 965.648560,589.818054 
	C955.071106,595.645325 944.190308,600.921814 933.363281,606.483093 
	C935.580933,611.516235 937.842407,616.493774 939.974792,621.526123 
	C942.889160,628.404053 948.001709,635.351746 947.917480,642.217285 
	C947.833252,649.080200 942.572510,655.908142 939.465149,662.698425 
	C935.169556,672.085205 930.765686,681.422424 925.794250,692.099487 
	C944.977295,683.304810 962.542480,674.780762 978.606689,662.122375 
M792.051819,696.536072 
	C783.427185,708.534180 774.802551,720.532288 765.590759,733.347229 
	C786.598267,729.461060 806.775452,725.774292 826.919250,721.913452 
	C828.499817,721.610474 830.360413,720.424438 831.224609,719.088440 
	C840.527466,704.706177 849.706177,690.242188 858.737732,675.688232 
	C859.460205,674.524048 859.471802,672.124084 858.743896,670.977905 
	C851.789368,660.026917 844.679932,649.170837 837.377197,638.449402 
	C836.575073,637.271729 834.145203,636.336365 832.704834,636.594971 
	C819.502319,638.966003 806.366699,641.706421 793.179993,644.170044 
	C785.740784,645.559937 778.242310,646.632629 770.122131,647.953735 
	C780.075989,661.152771 789.563843,673.733826 799.122803,686.409180 
	C796.841492,689.703674 794.670044,692.839417 792.051819,696.536072 
M895.981567,619.470825 
	C884.830505,622.880554 873.679382,626.290222 862.088501,629.834412 
	C863.276489,631.809875 864.274109,633.498169 865.299500,635.169373 
	C870.777222,644.096436 876.148193,653.092224 881.804749,661.904602 
	C883.829041,665.058228 884.245972,667.529419 881.993652,670.863281 
	C878.465149,676.086365 875.563782,681.730896 872.349976,687.169250 
	C867.002136,696.218506 861.617310,705.245850 855.663391,715.266357 
	C872.126831,710.307739 887.520996,705.751526 902.838989,700.951904 
	C904.672729,700.377380 906.736572,698.813599 907.602173,697.142883 
	C915.171509,682.532043 922.540466,667.816223 929.810486,653.053528 
	C930.514587,651.623840 930.807495,649.361267 930.176270,648.003601 
	C924.865662,636.580750 919.294800,625.278809 913.742004,613.815857 
	C907.745667,615.710449 902.236267,617.451172 895.981567,619.470825 
z"/>
<path fill="#BE0101" opacity="1.000000" stroke="none" 
	d="
M670.434692,353.366150 
	C650.266968,355.068115 630.567749,357.403687 610.810486,358.103394 
	C577.524109,359.282288 544.187439,360.278748 510.897308,359.750916 
	C479.966827,359.260498 448.972534,357.690582 418.184265,354.739288 
	C385.973511,351.651642 353.817596,347.265839 321.923920,341.782776 
	C283.389923,335.158142 245.661545,325.006561 209.790817,308.999664 
	C192.865036,301.446747 176.578445,292.734863 164.055054,278.514557 
	C150.617630,263.256348 149.997681,244.498932 163.128006,229.019455 
	C201.002777,184.368301 244.077454,145.792709 295.526886,117.171181 
	C296.796692,116.464798 298.024200,115.681496 299.303864,114.994522 
	C299.551361,114.861656 299.950317,115.010910 300.670746,115.052757 
	C287.230225,139.994202 304.589386,151.824600 322.224884,164.104492 
	C312.667725,166.198349 303.863525,168.127258 295.059296,170.056168 
	C294.864319,170.643005 294.669342,171.229843 294.474365,171.816681 
	C303.288086,176.212585 311.903900,181.074387 320.952332,184.917664 
	C348.852936,196.768204 378.315918,202.976349 408.061707,207.883102 
	C460.172974,216.479218 512.694397,218.647675 565.396790,217.029449 
	C611.053284,215.627594 656.366272,211.004974 701.010681,200.973984 
	C723.457581,195.930450 745.635376,189.879333 765.964478,178.780334 
	C772.749939,175.075699 779.306152,170.484436 784.911682,165.182541 
	C796.500549,154.221436 796.623352,142.108368 786.280151,129.915833 
	C785.564697,129.072372 784.853394,128.225327 784.710876,126.491783 
	C788.990662,128.904175 793.411316,131.098892 797.527893,133.763474 
	C829.995483,154.779022 858.899292,180.024536 885.220642,208.267899 
	C892.021301,215.565094 898.588501,223.106583 904.874207,230.851364 
	C918.049011,247.084259 917.939758,264.912567 904.516113,280.892792 
	C892.642883,295.027405 876.774231,303.556458 860.286804,310.916901 
	C830.229431,324.335419 798.658569,333.013916 766.401550,338.947235 
	C739.640015,343.869720 712.663452,347.630219 685.765015,351.794983 
	C680.844482,352.556824 675.841797,352.788055 670.434692,353.366150 
z"/>
<path fill="#BE0101" opacity="1.000000" stroke="none" 
	d="
M822.733582,805.757935 
	C858.697998,797.271484 893.518738,786.772278 925.691650,768.971130 
	C939.827332,761.149902 952.916382,751.887390 963.953491,739.409546 
	C963.089478,741.779724 962.467163,744.273682 961.325439,746.501526 
	C943.183411,781.901611 922.228516,815.478394 895.235046,844.873108 
	C880.953064,860.425659 865.945740,875.328064 850.945068,890.200378 
	C834.022217,906.978271 812.981873,916.912048 790.936279,924.953308 
	C753.996704,938.426941 715.679626,945.904175 676.849121,951.243835 
	C620.745361,958.958862 564.363464,961.228455 507.817352,959.968628 
	C449.086914,958.660156 390.729187,953.457336 333.245544,940.863220 
	C302.969238,934.230042 273.385010,925.400818 245.488770,911.370605 
	C226.943054,902.043152 212.453949,887.827576 197.928452,873.704895 
	C162.331589,839.095337 132.629807,800.000916 110.157516,755.581604 
	C106.937416,749.216675 103.528976,742.947083 100.219955,736.626892 
	C100.174896,736.540894 100.290688,736.370605 100.542938,735.559387 
	C102.130394,736.867615 103.677994,737.900879 104.933083,739.213806 
	C122.573616,757.666931 144.522598,769.344788 167.688705,779.055603 
	C207.178360,795.608826 248.570084,805.299500 290.496460,813.164368 
	C330.306580,820.632202 370.462799,825.549377 410.783844,828.661072 
	C481.777008,834.139893 552.895630,835.905029 624.018433,831.302795 
	C658.405945,829.077576 692.863953,826.822998 727.020325,822.466858 
	C758.977478,818.391296 790.578308,811.521484 822.733582,805.757935 
z"/>
<path fill="#010101" opacity="1.000000" stroke="none" 
	d="
M625.772095,468.855743 
	C595.658875,469.555420 566.021606,470.799683 536.384338,470.798553 
	C506.913757,470.797455 477.409821,470.188110 447.982239,468.657806 
	C419.276550,467.165039 390.550171,465.000793 362.014069,461.607697 
	C331.766357,458.011078 301.614594,453.269257 271.634369,447.847351 
	C234.729980,441.173248 198.482880,431.700989 163.905563,416.812866 
	C143.320297,407.949371 123.724190,397.433899 108.565018,380.247070 
	C95.399055,365.320068 90.566162,344.232391 101.940170,324.793488 
	C112.436569,306.854462 122.573921,288.705505 132.904648,270.669189 
	C133.843506,269.030060 135.039429,267.538116 137.045624,266.296356 
	C137.045624,267.040466 137.143082,267.799530 137.031342,268.526428 
	C134.289154,286.367065 143.371506,298.888733 155.895462,309.601135 
	C174.522598,325.533905 196.619156,335.235321 219.348007,343.457825 
	C259.271912,357.900879 300.580200,366.730927 342.486328,373.105072 
	C379.150757,378.681915 415.938568,383.115021 453.009308,384.319061 
	C491.119568,385.556885 529.258972,386.713348 567.379578,386.545044 
	C595.322998,386.421692 623.326233,384.929901 651.180664,382.592102 
	C714.915466,377.242889 778.231567,368.936188 839.546509,349.665649 
	C863.063354,342.274597 885.942749,333.258789 906.083923,318.554962 
	C909.303955,316.204254 912.466064,313.688385 915.266052,310.863373 
	C926.004883,300.028656 935.082703,288.526337 928.768494,264.004364 
	C930.317017,265.848083 931.138489,266.646515 931.750977,267.581757 
	C945.812134,289.053162 958.401123,311.347351 969.302856,334.594116 
	C975.715332,348.268158 974.877625,361.400208 966.527710,373.948364 
	C957.703979,387.208588 945.002808,396.059875 931.520447,403.854187 
	C901.793884,421.039459 869.441528,431.435730 836.396240,439.823639 
	C803.777466,448.103333 770.739868,454.314178 737.302246,458.225952 
	C714.063904,460.944550 690.813354,463.588501 667.531616,465.895416 
	C653.807434,467.255341 640.011658,467.892426 625.772095,468.855743 
z"/>
<path fill="#BE0101" opacity="1.000000" stroke="none" 
	d="
M331.547668,621.362488 
	C301.349670,616.137207 271.482269,611.520935 241.830902,605.787598 
	C213.463425,600.302429 185.569473,592.715881 158.327698,582.979675 
	C131.301712,573.320557 104.991417,562.138245 82.660629,543.522522 
	C69.752007,532.761536 58.605961,520.239502 56.663185,502.858368 
	C55.591801,493.273193 57.406151,483.319489 58.308723,473.567963 
	C61.442669,439.708252 70.490944,407.185577 80.970543,375.004272 
	C81.564278,373.181030 82.422386,371.443878 83.702888,368.347900 
	C83.623703,395.975342 100.930183,410.614105 120.186371,423.491058 
	C145.172211,440.199554 173.200531,450.231506 201.708542,459.052368 
	C235.353516,469.462677 269.750854,476.715149 304.400940,482.559296 
	C330.064758,486.887756 355.994537,489.645111 381.814911,493.033234 
	C385.982391,493.580048 388.633514,494.834961 390.280884,499.512543 
	C397.352692,519.592163 405.140228,539.418762 412.425690,559.425476 
	C413.151855,561.419556 412.971313,564.398315 411.978088,566.263123 
	C401.654144,585.647644 391.146301,604.935974 380.436005,624.109314 
	C379.604523,625.597839 376.757568,626.971863 375.021698,626.784485 
	C360.648773,625.232849 346.316986,623.300415 331.547668,621.362488 
z"/>
<path fill="#030303" opacity="1.000000" stroke="none" 
	d="
M101.292938,720.709412 
	C89.931679,710.305359 82.457390,698.031799 78.827690,683.337402 
	C77.169212,676.623169 74.777420,670.090149 72.533119,662.880310 
	C73.508171,663.635376 74.378937,663.999573 74.760910,664.650574 
	C84.787521,681.738892 99.928978,693.317810 116.603065,703.087891 
	C145.389603,719.955261 176.726379,730.406982 208.739960,739.082703 
	C243.585785,748.526123 278.989960,755.089783 314.711945,760.185120 
	C356.914734,766.204712 399.263397,770.777100 441.866150,772.149170 
	C484.311371,773.516296 526.799744,774.993713 569.245056,774.469910 
	C606.679138,774.008118 644.158997,771.794373 681.477356,768.668335 
	C739.159546,763.836487 796.425537,755.740356 852.565308,741.041077 
	C882.180847,733.286743 911.261536,723.987854 938.557678,709.881897 
	C957.016785,700.342712 974.294495,689.152649 987.021423,672.189453 
	C988.474487,670.252747 989.783081,668.207703 992.094482,666.469055 
	C991.870728,667.936340 991.834290,669.462830 991.392334,670.861145 
	C988.735229,679.268311 985.964417,687.639404 983.270325,696.035034 
	C977.608093,713.679871 965.499146,726.262268 950.973145,736.838623 
	C928.788696,752.991272 903.741333,763.289551 877.898071,771.784607 
	C837.846924,784.950012 796.679199,793.122131 755.025940,799.271545 
	C693.320374,808.381287 631.265747,812.261353 568.951294,813.360107 
	C521.933105,814.189087 474.986023,812.822449 428.113678,809.596802 
	C373.494629,805.838074 319.189117,799.247375 265.552216,787.975891 
	C229.896744,780.483032 194.755142,771.126343 161.097000,756.903992 
	C139.535400,747.792969 119.001938,736.905029 101.292938,720.709412 
z"/>
<path fill="#010101" opacity="1.000000" stroke="none" 
	d="
M170.906067,701.091675 
	C152.226227,693.147461 133.455307,686.204041 115.810883,677.081726 
	C103.987610,670.969055 93.185287,662.445374 82.964462,653.776367 
	C69.219322,642.118042 62.666237,626.730042 60.497414,608.508972 
	C57.526009,583.545044 54.421082,558.663452 54.463619,533.360413 
	C54.807423,533.777954 55.275028,534.099609 55.386463,534.516479 
	C61.492363,557.359070 77.818581,571.744324 96.630623,583.879395 
	C122.136902,600.332825 150.322067,610.740356 179.165314,619.521545 
	C216.814484,630.983887 255.183731,639.316101 294.076050,645.164917 
	C321.298615,649.258850 348.589294,652.909729 375.875671,656.563538 
	C384.111145,657.666260 392.449677,657.985596 400.703827,658.974182 
	C402.383881,659.175476 404.395691,660.403320 405.409668,661.780151 
	C415.183685,675.052185 424.714294,688.503357 434.479095,701.782288 
	C436.248077,704.187927 436.479431,705.779968 434.485474,708.206970 
	C425.394836,719.271973 416.579193,730.563660 407.436523,741.584412 
	C406.335754,742.911316 403.769531,743.859192 402.015381,743.680359 
	C380.189362,741.454163 358.296967,739.607483 336.602539,736.428711 
	C307.705505,732.194580 278.765411,727.824585 250.219940,721.746460 
	C223.655060,716.089966 197.583176,708.118103 170.906067,701.091675 
z"/>
<path fill="#030303" opacity="1.000000" stroke="none" 
	d="
M727.242371,95.741989 
	C735.580994,99.835327 744.027832,103.727501 752.203735,108.123466 
	C755.363770,109.822533 758.124268,112.449120 760.698364,115.021828 
	C772.522827,126.839958 772.158325,140.319778 759.697754,151.505859 
	C747.787659,162.197815 733.263916,168.039749 718.363464,172.939987 
	C686.623291,183.378189 653.864624,188.645096 620.727722,192.252487 
	C585.736511,196.061768 550.672729,197.527115 515.529297,196.588104 
	C465.014801,195.238358 414.954254,190.181992 366.205231,175.957169 
	C351.182159,171.573471 336.364746,166.445953 323.082855,157.995728 
	C317.114258,154.198410 311.288086,149.742828 306.557281,144.532700 
	C298.808807,135.999146 299.009857,126.969002 306.018890,117.811378 
	C312.343689,109.547729 320.964905,104.069290 330.029022,99.466064 
	C338.464539,95.182098 347.313171,91.711632 356.644196,87.976906 
	C357.570862,88.431786 357.833282,88.792778 357.872986,89.405640 
	C356.518616,90.357697 355.362579,91.021629 354.258972,91.763489 
	C335.453156,104.404778 335.339355,119.160133 353.992340,131.860168 
	C365.260284,139.532043 377.915222,144.151993 390.845215,147.983932 
	C429.706268,159.500778 469.652832,164.195450 509.966766,165.890228 
	C548.443115,167.507767 586.866943,166.471939 625.061646,160.925400 
	C648.797852,157.478516 672.244690,152.772827 694.592773,143.761520 
	C705.881714,139.209549 717.016052,134.228210 725.186218,124.657570 
	C730.925293,117.934700 731.308716,110.051949 725.833130,103.210289 
	C722.853516,99.487267 719.056763,96.418213 716.033508,92.878426 
	C720.039734,93.715759 723.641052,94.728867 727.242371,95.741989 
z"/>
<path fill="#020202" opacity="1.000000" stroke="none" 
	d="
M664.695312,534.716003 
	C672.278687,516.710266 683.406311,502.386566 701.679871,495.024933 
	C728.058472,484.398071 757.333557,493.150391 764.102661,526.989075 
	C769.412109,553.530884 766.637939,578.796631 750.124268,601.170776 
	C738.780457,616.540405 723.306580,625.816711 704.151062,626.804443 
	C680.269104,628.035889 664.365356,616.022827 659.044617,588.965088 
	C655.404724,570.455017 657.917053,552.544800 664.695312,534.716003 
M715.741516,588.397888 
	C718.203857,584.510925 721.415100,580.902832 722.986328,576.683960 
	C727.477905,564.623779 728.138855,551.973633 726.821777,539.258423 
	C726.520630,536.351379 725.486633,533.395569 724.210022,530.741089 
	C721.776123,525.680176 717.377686,524.172791 712.647583,527.126953 
	C710.133850,528.696899 707.720642,531.255188 706.504700,533.931885 
	C701.271179,545.452087 699.062500,557.747498 699.052979,570.340942 
	C699.049561,574.923645 699.889343,579.625671 701.111572,584.061951 
	C702.844299,590.351990 709.595581,593.722534 715.741516,588.397888 
z"/>
<path fill="#020202" opacity="1.000000" stroke="none" 
	d="
M578.001892,581.026489 
	C569.385010,581.026855 561.267517,581.026855 552.816406,581.026855 
	C559.277954,555.463562 565.782959,529.728516 572.228699,504.227814 
	C598.393066,502.996765 624.253784,501.779999 650.550232,500.542725 
	C649.391174,511.133484 648.220459,521.829956 647.010071,532.889343 
	C634.025818,533.585144 621.106995,534.413635 608.175598,534.918640 
	C600.583313,535.215088 600.573425,534.983337 598.854004,542.322266 
	C598.442505,544.078735 598.038757,545.836975 597.661621,547.463867 
	C605.105347,548.046692 612.341492,547.921082 619.284058,549.287170 
	C639.800720,553.324036 650.325134,568.473877 647.497437,589.458374 
	C644.874390,608.923462 632.734802,621.191589 615.548035,628.465576 
	C588.475769,639.923462 562.350891,636.287170 536.975281,621.653015 
	C543.390625,611.457886 549.644653,601.519104 555.354736,592.444702 
	C564.062683,594.947266 571.991089,598.169983 580.204529,599.276489 
	C586.367371,600.106689 593.003174,598.709717 599.226990,597.369141 
	C603.672119,596.411560 606.068054,592.404602 605.812622,587.877380 
	C605.576233,583.687500 601.994873,582.161194 598.356628,581.882690 
	C591.754944,581.377319 585.121460,581.288757 578.001892,581.026489 
z"/>
<path fill="#030303" opacity="1.000000" stroke="none" 
	d="
M864.595276,548.487915 
	C862.072021,569.287964 854.926575,587.342102 838.699463,600.785034 
	C824.817871,612.284912 807.361450,613.860291 793.833862,604.949768 
	C786.712891,600.259216 782.186157,593.399231 779.763977,585.461182 
	C769.190063,550.809448 773.140747,518.299194 795.482361,489.069061 
	C802.366394,480.062500 812.052368,474.904633 823.369202,473.127563 
	C835.519470,471.219696 848.181763,478.035248 855.183289,490.217682 
	C861.563293,501.318512 864.039490,513.527222 864.817749,526.072693 
	C865.270081,533.363647 864.752686,540.714661 864.595276,548.487915 
M831.596985,517.172302 
	C830.175049,513.051453 828.882385,508.130188 823.606323,508.288361 
	C818.527344,508.440643 816.220581,512.772888 814.828369,517.299438 
	C814.535889,518.250610 814.227478,519.198303 813.977783,520.160950 
	C810.679443,532.872192 810.348145,545.782593 811.721741,558.745789 
	C812.118530,562.490540 812.899048,566.341370 814.342102,569.793030 
	C816.364746,574.631042 821.273682,575.737793 824.749512,571.895935 
	C827.530701,568.821777 829.882141,564.846863 830.999084,560.871277 
	C834.977234,546.711548 834.859558,532.325500 831.596985,517.172302 
z"/>
<path fill="#030303" opacity="1.000000" stroke="none" 
	d="
M425.193268,570.200928 
	C430.853882,547.189514 436.460510,524.591248 441.898895,501.952576 
	C442.556580,499.214905 443.485657,498.072113 446.476929,498.179901 
	C475.238281,499.216187 504.004547,500.116364 532.769226,501.062225 
	C534.086243,501.105560 535.401123,501.212891 537.219116,501.320007 
	C535.380005,511.282379 533.582458,521.019165 531.733459,531.034912 
	C522.298950,531.034912 513.023926,531.112427 503.750793,531.013550 
	C494.097504,530.910706 484.446106,530.553467 474.793671,530.546265 
	C473.598663,530.545410 471.596985,531.804810 471.335297,532.829163 
	C469.369446,540.525146 467.746429,548.308655 465.745697,557.277100 
	C484.801666,557.277100 503.185577,557.277100 522.352295,557.277100 
	C520.080261,568.515320 518.057922,578.518188 516.003418,588.680420 
	C496.944916,588.067383 478.342010,587.468994 459.119629,586.850647 
	C455.906799,601.869202 452.728943,616.724243 449.384979,632.355652 
	C436.979797,631.606079 424.657928,630.861511 411.677765,630.077148 
	C416.252899,609.786621 420.670593,590.194214 425.193268,570.200928 
z"/>
<path fill="#070707" opacity="1.000000" stroke="none" 
	d="
M584.713501,970.874512 
	C639.321167,968.055481 693.056335,962.192139 745.504883,947.917419 
	C761.004822,943.698853 775.957092,937.469238 791.164612,932.173401 
	C792.640930,931.659302 794.147400,931.231445 795.639832,930.763489 
	C795.829407,931.133423 796.018982,931.503357 796.208618,931.873291 
	C793.256348,933.890747 790.322815,935.936218 787.348999,937.921265 
	C761.725647,955.023987 732.906555,964.131104 703.279480,970.895447 
	C633.115173,986.915039 561.940796,990.436218 490.281189,987.281067 
	C452.470917,985.616272 414.917297,981.663574 377.804993,974.069031 
	C350.365875,968.453918 323.350769,961.304077 298.149200,948.782959 
	C288.266418,943.872864 279.053894,937.613708 269.536133,931.968872 
	C269.732605,931.467651 269.929108,930.966431 270.125580,930.465210 
	C273.449005,931.512451 276.873749,932.315247 280.080505,933.644104 
	C319.126495,949.824585 360.104950,958.209167 401.748840,963.909424 
	C462.349213,972.204285 523.219788,973.548462 584.713501,970.874512 
z"/>
<path fill="#040404" opacity="1.000000" stroke="none" 
	d="
M947.974243,552.006104 
	C949.649414,557.100647 951.227966,561.815979 953.037109,567.220032 
	C945.510803,570.635376 938.033630,574.028381 930.066101,577.643982 
	C924.786682,563.666931 919.594666,549.921387 914.402649,536.175781 
	C913.973022,536.098999 913.543457,536.022217 913.113831,535.945374 
	C910.059387,544.166748 905.965515,552.177185 904.241821,560.668701 
	C902.507263,569.214050 903.129761,578.237854 902.688049,587.726501 
	C894.401733,590.255066 885.946228,592.835327 876.480347,595.723816 
	C880.633667,549.827881 879.756531,504.706635 874.058411,459.471893 
	C881.720276,456.789124 889.023376,454.231964 897.179443,451.376160 
	C899.163879,468.446716 901.105774,485.151276 903.047668,501.855865 
	C903.444275,501.941437 903.840881,502.026978 904.237549,502.112549 
	C906.792053,493.249451 909.588135,484.447083 911.836426,475.506958 
	C914.308838,465.675385 916.137573,455.682281 918.587708,445.844482 
	C919.054749,443.969269 920.781494,441.928528 922.491150,440.930603 
	C927.917175,437.763306 933.609924,435.053070 940.476196,431.506714 
	C938.442993,443.669434 936.886658,454.905975 934.614929,465.996002 
	C932.582214,475.919830 929.684814,485.664185 927.356628,495.532013 
	C926.927856,497.349152 926.863159,499.589172 927.532349,501.276276 
	C934.205688,518.102783 941.068420,534.854248 947.974243,552.006104 
z"/>
<path fill="#030303" opacity="1.000000" stroke="none" 
	d="
M565.424805,732.417725 
	C572.330078,724.063232 579.002930,715.977844 585.878479,707.646973 
	C574.783325,693.561340 563.726379,679.524292 552.306641,665.026611 
	C553.669250,664.741760 554.393555,664.476562 555.125488,664.453796 
	C578.743347,663.718567 602.361145,662.974792 625.982422,662.370056 
	C627.402893,662.333679 629.353333,663.022583 630.212463,664.068115 
	C640.879944,677.050354 651.390686,690.161438 662.243286,703.613159 
	C659.477234,707.146057 656.802795,710.686035 653.998718,714.120239 
	C645.683411,724.304077 637.365173,734.486633 628.908203,744.552124 
	C627.879089,745.776917 626.021606,746.961487 624.503174,747.021057 
	C600.726929,747.953613 576.943359,748.699585 553.160706,749.465515 
	C552.909729,749.473572 552.648987,749.175110 551.959656,748.757141 
	C556.398865,743.366028 560.795715,738.026428 565.424805,732.417725 
z"/>
<path fill="#030303" opacity="1.000000" stroke="none" 
	d="
M526.866211,676.130554 
	C535.266846,686.898560 543.453552,697.381287 551.920593,708.223022 
	C542.644592,719.416565 533.054138,730.220276 524.410767,741.734863 
	C519.898987,747.745361 515.119446,749.729187 507.721497,749.317871 
	C486.656982,748.146667 465.546753,747.797363 443.249054,747.086121 
	C445.780853,743.900391 447.648773,741.494019 449.575378,739.135620 
	C457.366669,729.598145 465.077789,719.992310 473.041595,710.600769 
	C475.281738,707.959045 475.387817,706.266174 473.214386,703.436584 
	C462.914154,690.026367 452.889374,676.404602 442.826263,662.938171 
	C450.852600,662.938171 458.557922,662.784363 466.255005,662.970581 
	C481.727936,663.344849 497.194183,664.072449 512.668152,664.271423 
	C516.605225,664.322083 519.177063,665.392456 521.202087,668.714417 
	C522.750732,671.254761 524.816528,673.479980 526.866211,676.130554 
z"/>
<path fill="#030303" opacity="1.000000" stroke="none" 
	d="
M678.994385,680.017334 
	C673.659912,673.422363 668.541077,667.108337 662.897522,660.147034 
	C672.654724,659.223816 681.796509,658.419922 690.924438,657.481201 
	C705.607300,655.971252 720.275269,654.312073 734.967529,652.903687 
	C736.429871,652.763489 738.578125,653.464539 739.459534,654.547363 
	C749.329834,666.671997 759.013733,678.948364 769.111084,691.640564 
	C762.196838,700.797913 755.335083,709.926025 748.425781,719.018005 
	C745.405029,722.993042 741.937012,726.675049 739.302368,730.884644 
	C736.000549,736.160156 731.660522,738.277527 725.475464,738.802917 
	C704.159241,740.613586 682.889343,742.968811 660.168091,745.261169 
	C672.520020,729.851624 684.007019,715.521118 695.759338,700.859680 
	C690.183350,693.931885 684.696655,687.114990 678.994385,680.017334 
z"/>
<path fill="#BE0404" opacity="1.000000" stroke="none" 
	d="
M984.350769,547.356873 
	C979.585876,550.859863 975.097900,554.138794 969.834595,557.984253 
	C969.834595,555.820923 969.784851,554.873413 969.841919,553.932373 
	C971.080872,533.482788 972.220398,513.026062 973.652466,492.589844 
	C974.049500,486.924713 973.180054,481.854095 970.495850,476.806549 
	C962.072815,460.967163 953.911499,444.988586 945.569031,428.910187 
	C952.017334,423.774841 958.799866,418.736786 965.170837,413.223175 
	C978.059814,402.068634 986.368896,388.807465 983.717407,370.558746 
	C984.865723,373.616821 986.047180,376.662994 987.153503,379.736206 
	C988.335754,383.020569 989.581909,386.290680 990.568787,389.635284 
	C1001.203552,425.678497 1008.133423,462.425201 1010.835449,499.909790 
	C1011.894104,514.596375 1005.958679,526.876831 995.802429,537.177063 
	C992.307007,540.721985 988.365417,543.826843 984.350769,547.356873 
z"/>
<path fill="#030303" opacity="1.000000" stroke="none" 
	d="
M978.325195,662.338501 
	C962.542480,674.780762 944.977295,683.304810 925.794250,692.099487 
	C930.765686,681.422424 935.169556,672.085205 939.465149,662.698425 
	C942.572510,655.908142 947.833252,649.080200 947.917480,642.217285 
	C948.001709,635.351746 942.889160,628.404053 939.974792,621.526123 
	C937.842407,616.493774 935.580933,611.516235 933.363281,606.483093 
	C944.190308,600.921814 955.071106,595.645325 965.648560,589.818054 
	C977.933105,583.050293 989.693604,575.332275 998.494080,564.194397 
	C1003.234436,558.194946 1006.850952,551.307495 1011.435242,544.095825 
	C1010.786011,557.159363 1010.731995,569.887146 1009.376770,582.474854 
	C1007.793945,597.176941 1005.801025,611.915283 1002.648010,626.345581 
	C999.417908,641.129089 990.341675,652.690552 978.325195,662.338501 
z"/>
<path fill="#030303" opacity="1.000000" stroke="none" 
	d="
M792.275208,696.255615 
	C794.670044,692.839417 796.841492,689.703674 799.122803,686.409180 
	C789.563843,673.733826 780.075989,661.152771 770.122131,647.953735 
	C778.242310,646.632629 785.740784,645.559937 793.179993,644.170044 
	C806.366699,641.706421 819.502319,638.966003 832.704834,636.594971 
	C834.145203,636.336365 836.575073,637.271729 837.377197,638.449402 
	C844.679932,649.170837 851.789368,660.026917 858.743896,670.977905 
	C859.471802,672.124084 859.460205,674.524048 858.737732,675.688232 
	C849.706177,690.242188 840.527466,704.706177 831.224609,719.088440 
	C830.360413,720.424438 828.499817,721.610474 826.919250,721.913452 
	C806.775452,725.774292 786.598267,729.461060 765.590759,733.347229 
	C774.802551,720.532288 783.427185,708.534180 792.275208,696.255615 
z"/>
<path fill="#030303" opacity="1.000000" stroke="none" 
	d="
M896.354248,619.331360 
	C902.236267,617.451172 907.745667,615.710449 913.742004,613.815857 
	C919.294800,625.278809 924.865662,636.580750 930.176270,648.003601 
	C930.807495,649.361267 930.514587,651.623840 929.810486,653.053528 
	C922.540466,667.816223 915.171509,682.532043 907.602173,697.142883 
	C906.736572,698.813599 904.672729,700.377380 902.838989,700.951904 
	C887.520996,705.751526 872.126831,710.307739 855.663391,715.266357 
	C861.617310,705.245850 867.002136,696.218506 872.349976,687.169250 
	C875.563782,681.730896 878.465149,676.086365 881.993652,670.863281 
	C884.245972,667.529419 883.829041,665.058228 881.804749,661.904602 
	C876.148193,653.092224 870.777222,644.096436 865.299500,635.169373 
	C864.274109,633.498169 863.276489,631.809875 862.088501,629.834412 
	C873.679382,626.290222 884.830505,622.880554 896.354248,619.331360 
z"/>
<path fill="#BC0A0B" opacity="1.000000" stroke="none" 
	d="
M705.002136,978.973511 
	C697.112732,981.849243 689.315247,985.014343 681.319275,987.554749 
	C620.181274,1006.978882 557.676514,1014.556091 493.637207,1009.344421 
	C448.750946,1005.691528 405.383850,995.543213 363.186066,980.053406 
	C361.378418,979.389832 359.576477,978.710571 357.426361,977.537964 
	C357.408020,976.348083 357.735199,975.658997 358.062347,974.969849 
	C369.455017,977.629578 380.778809,980.640320 392.251862,982.890259 
	C452.060577,994.619141 512.510010,997.645752 573.245667,994.803040 
	C614.492310,992.872620 655.517395,988.578979 695.624512,977.984070 
	C697.142456,977.583069 698.716492,977.394287 700.965698,977.105652 
	C702.778687,977.727661 703.890442,978.350586 705.002136,978.973511 
z"/>
<path fill="#0F0E0E" opacity="1.000000" stroke="none" 
	d="
M369.007202,83.022446 
	C396.260895,72.137405 424.820770,66.794838 453.748810,62.958218 
	C492.347260,57.839043 531.103882,56.764984 569.912720,59.120052 
	C610.357910,61.574425 650.458496,66.448135 689.000488,79.970467 
	C691.458679,80.832916 693.850220,81.885246 696.654480,83.277451 
	C697.020386,84.154282 697.004578,84.602890 696.592896,85.039597 
	C692.987793,84.243484 689.771545,83.486160 686.570068,82.670959 
	C650.301636,73.435562 613.286621,69.170792 576.050049,67.223282 
	C506.254944,63.572937 437.020935,67.506989 368.967194,84.697800 
	C368.956512,83.916519 368.981842,83.469482 369.007202,83.022446 
z"/>
<path fill="#B62F33" opacity="1.000000" stroke="none" 
	d="
M705.379028,978.975952 
	C703.890442,978.350586 702.778687,977.727661 701.288696,977.035278 
	C706.392273,975.392578 711.874084,973.819275 717.355896,972.246033 
	C717.562561,972.812988 717.769226,973.379944 717.975891,973.946960 
	C713.902527,975.624084 709.829224,977.301270 705.379028,978.975952 
z"/>
<path fill="#666668" opacity="1.000000" stroke="none" 
	d="
M727.088379,95.444107 
	C723.641052,94.728867 720.039734,93.715759 715.708130,92.853394 
	C712.972290,91.626831 710.966736,90.249512 708.988342,88.582924 
	C708.995972,87.906784 708.976379,87.519905 708.956787,87.133026 
	C714.949341,89.804100 720.941895,92.475166 727.088379,95.444107 
z"/>
<path fill="#B93535" opacity="1.000000" stroke="none" 
	d="
M357.777100,974.740234 
	C357.735199,975.658997 357.408020,976.348083 357.081604,977.351562 
	C352.381348,975.652405 347.680389,973.638916 342.979401,971.625488 
	C343.121704,971.221558 343.263977,970.817627 343.406281,970.413757 
	C348.101471,971.779358 352.796661,973.145020 357.777100,974.740234 
z"/>
<path fill="#363838" opacity="1.000000" stroke="none" 
	d="
M708.627808,86.988327 
	C708.976379,87.519905 708.995972,87.906784 708.624512,88.513565 
	C704.485229,87.506149 700.736938,86.278824 696.988708,85.051498 
	C697.004578,84.602890 697.020386,84.154282 697.013794,83.369217 
	C700.760559,84.303062 704.529663,85.573341 708.627808,86.988327 
z"/>
<path fill="#404441" opacity="1.000000" stroke="none" 
	d="
M368.624878,82.997223 
	C368.981842,83.469482 368.956512,83.916519 368.668335,84.900894 
	C364.968903,86.676743 361.532318,87.915260 358.095703,89.153778 
	C357.833282,88.792778 357.570862,88.431786 357.003357,87.909973 
	C360.546326,86.156776 364.394440,84.564384 368.624878,82.997223 
z"/>
<path fill="#F7F2F2" opacity="1.000000" stroke="none" 
	d="
M357.872986,89.405640 
	C361.532318,87.915260 364.968903,86.676743 368.704346,85.235138 
	C437.020935,67.506989 506.254944,63.572937 576.050049,67.223282 
	C613.286621,69.170792 650.301636,73.435562 686.570068,82.670959 
	C689.771545,83.486160 692.987793,84.243484 696.592896,85.039597 
	C700.736938,86.278824 704.485229,87.506149 708.597290,88.802834 
	C710.966736,90.249512 712.972290,91.626831 715.303223,93.029175 
	C719.056763,96.418213 722.853516,99.487267 725.833130,103.210289 
	C731.308716,110.051949 730.925293,117.934700 725.186218,124.657570 
	C717.016052,134.228210 705.881714,139.209549 694.592773,143.761520 
	C672.244690,152.772827 648.797852,157.478516 625.061646,160.925400 
	C586.866943,166.471939 548.443115,167.507767 509.966766,165.890228 
	C469.652832,164.195450 429.706268,159.500778 390.845215,147.983932 
	C377.915222,144.151993 365.260284,139.532043 353.992340,131.860168 
	C335.339355,119.160133 335.453156,104.404778 354.258972,91.763489 
	C355.362579,91.021629 356.518616,90.357697 357.872986,89.405640 
M660.498901,82.887115 
	C631.037231,79.886833 601.633606,75.501938 572.098022,74.262268 
	C540.372375,72.930664 508.498901,73.900322 476.733521,75.060143 
	C441.076324,76.362053 405.765747,81.272957 370.978729,89.372742 
	C362.007080,91.461685 354.557892,96.650101 348.686951,103.760635 
	C343.994904,109.443283 343.837769,115.157623 348.904236,120.415337 
	C352.767548,124.424484 357.382050,127.963486 362.224121,130.727753 
	C376.203308,138.708282 391.520874,143.322250 407.110382,146.909607 
	C414.507263,148.611740 422.194458,150.999390 429.578217,150.505646 
	C492.675903,146.286316 555.744507,145.867355 618.838745,150.254272 
	C628.300354,150.912140 637.974731,152.937546 647.196228,151.696487 
	C666.355103,149.118042 684.903687,143.422058 702.284851,134.761536 
	C708.607056,131.611389 714.542664,127.389793 719.983398,122.852203 
	C725.113586,118.573601 725.920837,113.107140 722.957336,108.040581 
	C718.239136,99.974266 711.012512,93.965454 702.386108,91.514542 
	C688.982971,87.706451 675.062805,85.718422 660.498901,82.887115 
z"/>
<path fill="#FBFBFB" opacity="1.000000" stroke="none" 
	d="
M715.454285,588.634827 
	C709.595581,593.722534 702.844299,590.351990 701.111572,584.061951 
	C699.889343,579.625671 699.049561,574.923645 699.052979,570.340942 
	C699.062500,557.747498 701.271179,545.452087 706.504700,533.931885 
	C707.720642,531.255188 710.133850,528.696899 712.647583,527.126953 
	C717.377686,524.172791 721.776123,525.680176 724.210022,530.741089 
	C725.486633,533.395569 726.520630,536.351379 726.821777,539.258423 
	C728.138855,551.973633 727.477905,564.623779 722.986328,576.683960 
	C721.415100,580.902832 718.203857,584.510925 715.454285,588.634827 
z"/>
<path fill="#FAFAFA" opacity="1.000000" stroke="none" 
	d="
M831.711853,517.563354 
	C834.859558,532.325500 834.977234,546.711548 830.999084,560.871277 
	C829.882141,564.846863 827.530701,568.821777 824.749512,571.895935 
	C821.273682,575.737793 816.364746,574.631042 814.342102,569.793030 
	C812.899048,566.341370 812.118530,562.490540 811.721741,558.745789 
	C810.348145,545.782593 810.679443,532.872192 813.977783,520.160950 
	C814.227478,519.198303 814.535889,518.250610 814.828369,517.299438 
	C816.220581,512.772888 818.527344,508.440643 823.606323,508.288361 
	C828.882385,508.130188 830.175049,513.051453 831.711853,517.563354 
z"/>
<path fill="#BE0202" opacity="1.000000" stroke="none" 
	d="
M660.930298,82.923004 
	C675.062805,85.718422 688.982971,87.706451 702.386108,91.514542 
	C711.012512,93.965454 718.239136,99.974266 722.957336,108.040581 
	C725.920837,113.107140 725.113586,118.573601 719.983398,122.852203 
	C714.542664,127.389793 708.607056,131.611389 702.284851,134.761536 
	C684.903687,143.422058 666.355103,149.118042 647.196228,151.696487 
	C637.974731,152.937546 628.300354,150.912140 618.838745,150.254272 
	C555.744507,145.867355 492.675903,146.286316 429.578217,150.505646 
	C422.194458,150.999390 414.507263,148.611740 407.110382,146.909607 
	C391.520874,143.322250 376.203308,138.708282 362.224121,130.727753 
	C357.382050,127.963486 352.767548,124.424484 348.904236,120.415337 
	C343.837769,115.157623 343.994904,109.443283 348.686951,103.760635 
	C354.557892,96.650101 362.007080,91.461685 370.978729,89.372742 
	C405.765747,81.272957 441.076324,76.362053 476.733521,75.060143 
	C508.498901,73.900322 540.372375,72.930664 572.098022,74.262268 
	C601.633606,75.501938 631.037231,79.886833 660.930298,82.923004 
z"/>
</svg>